<?xml version="1.0" standalone="no"?>
<!DOCTYPE svg PUBLIC "-//W3C//DTD SVG 20010904//EN"
 "http://www.w3.org/TR/2001/REC-SVG-20010904/DTD/svg10.dtd">
<svg version="1.0" xmlns="http://www.w3.org/2000/svg"
 width="400.000000pt" height="400.000000pt" viewBox="0 0 400.000000 400.000000"
 preserveAspectRatio="xMidYMid meet">

<g transform="translate(0.000000,400.000000) scale(0.100000,-0.100000)"
fill="#000000" stroke="none">
<path d="M0 2000 l0 -2000 2000 0 2000 0 0 2000 0 2000 -2000 0 -2000 0 0
-2000z m2655 715 c165 -44 277 -168 287 -321 l3 -49 -167 -3 -166 -2 -7 32
c-26 121 -215 113 -215 -8 0 -76 32 -119 253 -336 l211 -207 48 89 49 90 179
0 c99 0 180 -3 180 -7 0 -5 -9 -23 -21 -42 -11 -19 -41 -75 -67 -125 -25 -50
-65 -124 -89 -164 l-43 -73 178 -174 177 -174 -213 -1 -214 0 -67 65 -68 65
-26 -20 c-39 -31 -164 -87 -237 -107 -50 -14 -102 -18 -220 -18 -143 1 -161 3
-234 28 -43 15 -103 44 -133 64 -173 115 -231 354 -135 553 33 66 119 156 187
195 28 16 52 30 54 31 2 2 -7 17 -20 35 -70 99 -90 243 -47 356 40 108 142
191 278 227 74 20 231 20 305 1z m-1322 -310 c175 -37 304 -166 335 -332 l9
-53 -166 0 -166 1 -20 42 c-26 55 -81 87 -151 87 -90 0 -147 -59 -114 -119 16
-30 55 -47 197 -86 265 -70 332 -109 391 -220 24 -44 27 -61 27 -145 0 -110
-17 -152 -90 -225 -87 -87 -209 -128 -380 -128 -239 0 -417 96 -495 266 -15
34 -31 79 -34 100 l-7 37 178 0 178 -1 20 -42 c24 -51 71 -84 132 -93 81 -12
163 29 163 82 0 61 -33 79 -242 135 -229 61 -298 100 -353 200 -27 49 -30 63
-30 144 0 78 4 97 28 147 49 100 154 173 292 203 80 18 215 18 298 0z"/>
<path d="M2288 1857 c-60 -45 -90 -107 -85 -175 11 -154 208 -220 395 -132
l67 31 -156 155 c-86 85 -161 154 -167 154 -6 0 -30 -15 -54 -33z"/>
</g>
</svg>
